<?xml version="1.0" encoding="utf-8"?>

<!DOCTYPE svg PUBLIC "-//W3C//DTD SVG 1.1//EN" "http://www.w3.org/Graphics/SVG/1.1/DTD/svg11.dtd">
<svg version="1.1" id="Layer_1" xmlns="http://www.w3.org/2000/svg" xmlns:xlink="http://www.w3.org/1999/xlink" x="0px" y="0px"
	 viewBox="0 0 1934.986 1675.747" enable-background="new 0 0 1934.986 1675.747" xml:space="preserve">
<g>
	<g>
		<polygon fill="none" stroke="#000000" stroke-width="7.4814" stroke-miterlimit="10" points="967.493,39.744 1891.253,1639.744 
			43.733,1639.744 		"/>
	</g>
	<g>
		<polygon fill="none" stroke="#000000" stroke-width="7.4814" stroke-miterlimit="10" points="905.292,159.324 1818.813,1526.504 
			178.04,1634.046 		"/>
	</g>
	<g>
		<polygon fill="none" stroke="#000000" stroke-width="7.4814" stroke-miterlimit="10" points="857.013,269.142 1747.887,1430.152 
			296.986,1621.167 		"/>
	</g>
	<g>
		<polygon fill="none" stroke="#000000" stroke-width="7.4814" stroke-miterlimit="10" points="820.529,369.482 1679.29,1348.712 
			401.872,1602.806 		"/>
	</g>
	<g>
		<polygon fill="none" stroke="#000000" stroke-width="7.4814" stroke-miterlimit="10" points="793.968,460.717 1613.629,1280.378 
			493.951,1580.395 		"/>
	</g>
	<g>
		<polygon fill="none" stroke="#000000" stroke-width="7.4814" stroke-miterlimit="10" points="775.69,543.288 1551.338,1223.513 
			574.422,1555.131 		"/>
	</g>
	<g>
		<polygon fill="none" stroke="#000000" stroke-width="7.4814" stroke-miterlimit="10" points="764.264,617.683 1492.708,1176.637 
			644.417,1528.011 		"/>
	</g>
	<g>
		<polygon fill="none" stroke="#000000" stroke-width="7.4814" stroke-miterlimit="10" points="758.447,684.418 1437.91,1138.42 
			705.001,1499.851 		"/>
	</g>
	<g>
		<polygon fill="none" stroke="#000000" stroke-width="7.4814" stroke-miterlimit="10" points="757.166,744.023 1387.02,1107.67 
			757.166,1471.316 		"/>
	</g>
	<g>
		<polygon fill="none" stroke="#000000" stroke-width="7.4814" stroke-miterlimit="10" points="759.497,797.033 1340.035,1083.322 
			801.832,1442.938 		"/>
	</g>
	<g>
		<polygon fill="none" stroke="#000000" stroke-width="7.4814" stroke-miterlimit="10" points="764.653,843.975 1296.89,1064.435 
			839.848,1415.135 		"/>
	</g>
	<g>
		<polygon fill="none" stroke="#000000" stroke-width="7.4814" stroke-miterlimit="10" points="771.965,885.364 1257.474,1050.172 
			871.991,1388.231 		"/>
	</g>
	<g>
		<polygon fill="none" stroke="#000000" stroke-width="7.4814" stroke-miterlimit="10" points="780.868,921.695 1221.639,1039.8 
			898.972,1362.467 		"/>
	</g>
	<g>
		<polygon fill="none" stroke="#000000" stroke-width="7.4814" stroke-miterlimit="10" points="790.889,953.443 1189.21,1032.674 
			921.433,1338.015 		"/>
	</g>
	<g>
		<polygon fill="none" stroke="#000000" stroke-width="7.4814" stroke-miterlimit="10" points="801.636,981.055 1159.995,1028.234 
			939.958,1314.992 		"/>
	</g>
	<g>
		<polygon fill="none" stroke="#000000" stroke-width="7.4814" stroke-miterlimit="10" points="812.789,1004.951 1133.791,1025.99 
			955.069,1293.467 		"/>
	</g>
	<g>
		<polygon fill="none" stroke="#000000" stroke-width="7.4814" stroke-miterlimit="10" points="824.084,1025.524 1110.389,1025.524 
			967.237,1273.471 		"/>
	</g>
</g>
</svg>
